<svg width="24" height="24" viewBox="0 0 40 40" fill="none" xmlns="http://www.w3.org/2000/svg"><path fill-rule="evenodd" clip-rule="evenodd" d="M18.0895 6.38525C18.7802 8.0917 17.9568 10.035 16.2504 10.7258C12.5795 12.2117 9.99967 15.8086 9.99967 20.0001C9.99967 20.4263 10.0261 20.8448 10.0772 21.2543C10.305 23.0811 9.00874 24.7466 7.18194 24.9744C5.35514 25.2023 3.68957 23.9059 3.46177 22.0793C3.37667 21.3968 3.33301 20.7028 3.33301 20.0001C3.33301 13.0003 7.64712 7.01613 13.749 4.54618C15.4554 3.85543 17.3987 4.67881 18.0895 6.38525ZM9.06551 28.3241C10.217 26.8878 12.3148 26.6568 13.7512 27.8083C15.4639 29.1811 17.6315 30.0001 19.9997 30.0001C22.3678 30.0001 24.5355 29.1811 26.2482 27.8083C27.6845 26.6568 29.7823 26.8878 30.9338 28.3241C32.0853 29.7606 31.8543 31.8584 30.4178 33.0099C27.5652 35.2968 23.9378 36.6668 19.9997 36.6668C16.0615 36.6668 12.4341 35.2968 9.58144 33.0099C8.14504 31.8584 7.91406 29.7606 9.06551 28.3241Z" fill="#E8EDFF"></path><path fill-rule="evenodd" clip-rule="evenodd" d="M21.9104 6.38525C22.6012 4.67881 24.5446 3.85543 26.2509 4.54618C32.3527 7.01613 36.6669 13.0003 36.6669 20.0001C36.6669 20.7028 36.6232 21.3968 36.5382 22.0793C36.3104 23.9059 34.6447 25.2023 32.8179 24.9744C30.9912 24.7466 29.6949 23.0811 29.9227 21.2543C29.9737 20.8448 30.0002 20.4263 30.0002 20.0001C30.0002 15.8086 27.4204 12.2117 23.7496 10.7258C22.0431 10.035 21.2197 8.0917 21.9104 6.38525Z" fill="#0163A4"></path></svg>