<svg width="24" height="24" viewBox="0 0 40 40" fill="none" xmlns="http://www.w3.org/2000/svg"><path d="M15.7206 23.0869L7.49187 20.9421C4.35932 20.1256 4.11187 15.7733 7.13169 14.607L31.546 5.17793C33.5968 4.38586 35.614 6.403 34.8218 8.45383L25.3928 32.8681C24.2265 35.8879 19.8743 35.6404 19.0578 32.5079L16.913 24.2792C16.7608 23.6952 16.3047 23.2391 15.7206 23.0869Z" fill="#E8EDFF"></path><path fill-rule="evenodd" clip-rule="evenodd" d="M16.4785 23.5216L34.2497 5.75024C34.9114 6.41186 35.2176 7.42884 34.8216 8.45424L25.3926 32.8686C24.2262 35.8884 19.8741 35.6409 19.0576 32.5084L16.9127 24.2797C16.8366 23.9876 16.6846 23.7276 16.4785 23.5216Z" fill="#0163A4"></path></svg>