<svg width="24" height="24" viewBox="0 0 32 33" fill="none" xmlns="http://www.w3.org/2000/svg"><path d="M4 23.5329V13.0333C4 10.0464 4 8.55292 4.58129 7.41205C5.09263 6.40852 5.90852 5.59263 6.91205 5.08129C8.05292 4.5 9.54639 4.5 12.5333 4.5H19.4667C22.4536 4.5 23.9471 4.5 25.088 5.08129C26.0915 5.59263 26.9073 6.40852 27.4187 7.41205C28 8.55292 28 10.0464 28 13.0333V14.6333C28 17.6203 28 19.1137 27.4187 20.2547C26.9073 21.2581 26.0915 22.074 25.088 22.5853C23.9471 23.1667 22.4536 23.1667 19.4667 23.1667H13.8123C13.1439 23.1667 12.8098 23.1667 12.4962 23.2437C12.2182 23.312 11.9531 23.4247 11.7109 23.5772C11.4378 23.7495 11.2057 23.9899 10.7417 24.4708L9.50288 25.7548C7.7828 27.5376 6.92275 28.4291 6.18189 28.4967C5.53931 28.5553 4.90788 28.3004 4.48619 27.812C4 27.2489 4 26.0103 4 23.5329Z" fill="#0163A4"></path><path d="M10.6668 9.83325C9.93046 9.83325 9.3335 10.4302 9.3335 11.1666C9.3335 11.903 9.93046 12.4999 10.6668 12.4999H21.3335C22.0699 12.4999 22.6668 11.903 22.6668 11.1666C22.6668 10.4302 22.0699 9.83325 21.3335 9.83325H10.6668Z" fill="#E8EDFF"></path><path d="M10.6668 15.1667C9.93046 15.1667 9.3335 15.7637 9.3335 16.5001C9.3335 17.2365 9.93046 17.8334 10.6668 17.8334H14.6668C15.4032 17.8334 16.0002 17.2365 16.0002 16.5001C16.0002 15.7637 15.4032 15.1667 14.6668 15.1667H10.6668Z" fill="#E8EDFF"></path></svg>