<svg width="24" height="24" viewBox="0 0 40 40" fill="none" xmlns="http://www.w3.org/2000/svg"><path d="M6.66699 21.6667C6.66699 20.7462 7.41319 20 8.33366 20H31.667C32.5875 20 33.3337 20.7462 33.3337 21.6667V30C33.3337 32.7615 31.0952 35 28.3337 35H11.667C8.90558 35 6.66699 32.7615 6.66699 30V21.6667Z" fill="#E8EDFF"></path><path d="M5 15.0001C5 13.1591 6.49238 11.6667 8.33333 11.6667H31.6667C33.5077 11.6667 35 13.1591 35 15.0001V16.6667C35 18.5077 33.5077 20.0001 31.6667 20.0001H8.33333C6.49238 20.0001 5 18.5077 5 16.6667V15.0001Z" fill="#0163A4"></path><path fill-rule="evenodd" clip-rule="evenodd" d="M11.667 10C11.667 7.23858 13.9056 5 16.667 5C17.9477 5 19.1157 5.48142 20.0003 6.27315C20.885 5.48142 22.053 5 23.3337 5C26.0952 5 28.3337 7.23858 28.3337 10C28.3337 12.7614 26.0952 15 23.3337 15H21.667V35H18.3337V15H16.667C13.9056 15 11.667 12.7614 11.667 10ZM18.3337 11.6667H16.667C15.7465 11.6667 15.0003 10.9205 15.0003 10C15.0003 9.07953 15.7465 8.33333 16.667 8.33333C17.5875 8.33333 18.3337 9.07953 18.3337 10V11.6667ZM21.667 11.6667H23.3337C24.2542 11.6667 25.0003 10.9205 25.0003 10C25.0003 9.07953 24.2542 8.33333 23.3337 8.33333C22.4132 8.33333 21.667 9.07953 21.667 10V11.6667Z" fill="#0163A4"></path></svg>