<svg width="24" height="24" viewBox="0 0 40 40" fill="none" xmlns="http://www.w3.org/2000/svg"><path d="M11.667 33.3334C11.667 32.4129 12.4132 31.6667 13.3337 31.6667H26.667C27.5875 31.6667 28.3337 32.4129 28.3337 33.3334C28.3337 34.2539 27.5875 35.0001 26.667 35.0001H13.3337C12.4132 35.0001 11.667 34.2539 11.667 33.3334Z" fill="#E8EDFF"></path><path d="M13 28.3333C10.1997 28.3333 8.7996 28.3333 7.73005 27.7883C6.78923 27.309 6.02433 26.5442 5.54497 25.6033C5 24.5337 5 23.1337 5 20.3333V13C5 10.1997 5 8.7996 5.54497 7.73005C6.02433 6.78923 6.78923 6.02433 7.73005 5.54497C8.7996 5 10.1997 5 13 5H27C29.8003 5 31.2003 5 32.27 5.54497C33.2108 6.02433 33.9757 6.78923 34.455 7.73005C35 8.7996 35 10.1997 35 13V20.3333C35 23.1337 35 24.5337 34.455 25.6033C33.9757 26.5442 33.2108 27.309 32.27 27.7883C31.2003 28.3333 29.8003 28.3333 27 28.3333H13Z" fill="#E8EDFF"></path><path d="M11.6667 10C10.7462 10 10 10.7462 10 11.6667C10 12.5871 10.7462 13.3333 11.6667 13.3333H23.3333C24.2538 13.3333 25 12.5871 25 11.6667C25 10.7462 24.2538 10 23.3333 10H11.6667Z" fill="#0163A4"></path><path d="M11.6667 16.6667C10.7462 16.6667 10 17.4129 10 18.3334C10 19.2539 10.7462 20.0001 11.6667 20.0001H15C15.9205 20.0001 16.6667 19.2539 16.6667 18.3334C16.6667 17.4129 15.9205 16.6667 15 16.6667H11.6667Z" fill="#0163A4"></path></svg>