<svg width="24" height="24" viewBox="0 0 22 27" fill="none" xmlns="http://www.w3.org/2000/svg"><path d="M16 20.073C19.1883 18.2287 21.3333 14.7815 21.3333 10.8334C21.3333 4.94231 16.5577 0.166687 10.6667 0.166687C4.77563 0.166687 0 4.94231 0 10.8334C0 14.7815 2.14505 18.2287 5.33333 20.073V21.5C5.33333 22.2364 5.93029 22.8334 6.66667 22.8334H14.6667C15.4031 22.8334 16 22.2364 16 21.5V20.073Z" fill="#E8EDFF"></path><path d="M6.66667 22.8334H14.6667L14.6667 24.1667C14.6667 25.6395 13.4728 26.8334 12 26.8334H9.33333C7.86057 26.8334 6.66667 25.6395 6.66667 24.1667L6.66667 22.8334Z" fill="#0163A4"></path><path d="M8.9428 11.2239C8.42213 10.7032 7.57789 10.7032 7.05719 11.2239C6.53649 11.7446 6.53649 12.5888 7.05719 13.1095L9.33333 15.3856V22.8334H12V15.3856L14.2761 13.1095C14.7968 12.5888 14.7968 11.7446 14.2761 11.2239C13.7555 10.7032 12.9112 10.7032 12.3905 11.2239L10.6667 12.9478L8.9428 11.2239Z" fill="#0163A4"></path></svg>